<svg xmlns="http://www.w3.org/2000/svg" width="283" height="18" viewBox="0 0 283 18">
    <path fill="#919191" fill-rule="evenodd" d="M8.325.834c1.216 0 2.298.166 3.24.503.943.334 1.75.786 2.421 1.354.67.571 1.205 1.24 1.602 2.011.399.774.659 1.604.784 2.492h-2.83c-.093-.561-.277-1.083-.549-1.566-.273-.483-.618-.902-1.03-1.253-.413-.349-.897-.628-1.451-.829-.552-.202-1.164-.305-1.835-.305-.935 0-1.774.172-2.513.516-.741.342-1.362.797-1.86 1.367-.499.568-.881 1.225-1.147 1.967-.267.739-.397 1.507-.397 2.302 0 .842.136 1.636.41 2.385.271.75.668 1.409 1.192 1.977.522.57 1.168 1.017 1.943 1.344.77.327 1.656.492 2.653.492.468 0 .939-.082 1.416-.246.474-.163.915-.388 1.32-.678.405-.29.76-.631 1.065-1.029.305-.399.526-.831.666-1.299h2.947c-.187.796-.508 1.536-.958 2.223-.453.686-1.016 1.286-1.685 1.801-.67.514-1.442.916-2.317 1.205-.871.288-1.808.432-2.805.432-1.342 0-2.541-.234-3.601-.702-1.063-.468-1.962-1.095-2.704-1.882-.739-.786-1.309-1.7-1.707-2.738C.198 11.643 0 10.546 0 9.393c0-1.107.19-2.175.573-3.206.383-1.027.936-1.939 1.659-2.734.726-.797 1.599-1.431 2.622-1.908C5.874 1.07 7.03.834 8.325.834zm36.98 0c1.309 0 2.491.236 3.542.711 1.054.477 1.943 1.111 2.668 1.908.725.795 1.28 1.71 1.67 2.748.39 1.035.586 2.109.586 3.215 0 1.108-.196 2.179-.585 3.217-.39 1.037-.946 1.953-1.671 2.748-.725.794-1.614 1.43-2.668 1.905-1.051.476-2.233.714-3.542.714-1.31 0-2.49-.238-3.543-.714-1.052-.476-1.942-1.111-2.667-1.905-.725-.795-1.283-1.711-1.673-2.748-.39-1.038-.584-2.109-.584-3.217 0-1.106.194-2.18.584-3.215.39-1.038.948-1.953 1.673-2.748.725-.797 1.615-1.431 2.667-1.908 1.052-.475 2.233-.711 3.543-.711zm71.52 0c1.216 0 2.297.166 3.24.503.945.334 1.751.786 2.42 1.354.671.571 1.206 1.24 1.604 2.011.397.774.658 1.604.783 2.492h-2.829c-.095-.561-.279-1.083-.55-1.566-.273-.483-.617-.902-1.031-1.253-.412-.349-.896-.628-1.45-.829-.553-.202-1.165-.305-1.835-.305-.936 0-1.773.172-2.514.516-.741.342-1.36.797-1.86 1.367-.498.568-.88 1.225-1.146 1.967-.265.739-.397 1.507-.397 2.302 0 .842.138 1.636.409 2.385.272.75.67 1.409 1.194 1.977.52.57 1.169 1.017 1.941 1.344.771.327 1.656.492 2.653.492.468 0 .941-.082 1.417-.246.473-.163.915-.388 1.32-.678.406-.29.76-.631 1.064-1.029.305-.399.527-.831.667-1.299h2.947c-.188.796-.507 1.536-.958 2.223-.453.686-1.015 1.286-1.685 1.801-.67.514-1.443.916-2.316 1.205-.873.288-1.809.432-2.807.432-1.34 0-2.54-.234-3.601-.702-1.062-.468-1.962-1.095-2.702-1.882-.74-.786-1.309-1.7-1.708-2.738-.397-1.035-.596-2.132-.596-3.285 0-1.107.191-2.175.574-3.206.382-1.027.935-1.939 1.66-2.734.724-.797 1.599-1.431 2.62-1.908 1.02-.475 2.179-.711 3.472-.711zm126.285 0c.965 0 1.858.138 2.677.42.82.28 1.535.663 2.152 1.146.616.483 1.111 1.049 1.484 1.696.375.647.594 1.328.654 2.046h-2.712c-.078-.406-.234-.784-.467-1.135-.234-.35-.538-.658-.913-.923-.375-.267-.807-.472-1.297-.62-.492-.149-1.017-.223-1.578-.223-.875 0-1.662.172-2.363.516-.701.342-1.297.797-1.789 1.367-.492.568-.865 1.227-1.122 1.977-.258.748-.387 1.52-.387 2.315 0 .796.123 1.567.375 2.317.248.747.623 1.406 1.12 1.976.5.568 1.124 1.026 1.872 1.368.75.341 1.63.514 2.643.514.703 0 1.33-.102 1.883-.305.554-.202 1.03-.478 1.428-.83.398-.35.722-.755.97-1.217.25-.458.413-.938.491-1.437h-3.135V9.393h7.79v2.409h-1.8c-.188.92-.496 1.758-.926 2.515-.429.755-.975 1.406-1.637 1.954-.663.544-1.447.97-2.352 1.273-.902.305-1.922.456-3.061.456-1.343 0-2.535-.238-3.579-.714s-1.926-1.111-2.643-1.905c-.719-.795-1.264-1.711-1.638-2.748-.375-1.038-.561-2.109-.561-3.217 0-1.106.194-2.18.585-3.215.39-1.038.951-1.953 1.685-2.748.732-.797 1.616-1.431 2.654-1.908 1.035-.475 2.203-.711 3.497-.711zM78.023 1.23l6.48 11.647V1.23h2.689v16.373h-2.948L77.766 5.955v11.648h-2.69V1.23h2.947zm130.867 0c.875 0 1.665.152 2.377.456.707.304 1.317.722 1.822 1.251.507.531.897 1.143 1.17 1.836.273.696.408 1.424.408 2.187 0 .593-.078 1.158-.231 1.696-.158.537-.387 1.039-.692 1.496-.304.46-.67.874-1.098 1.242-.43.365-.91.659-1.44.875l3.253 5.334h-3.065l-2.994-4.911h-2.69v4.91h-2.689V1.23h5.87zM149 1v16h-3V1h3zm32 0v2.354h-6.438V7.88H181v2.356h-6.438v4.41H181V17h-9V1h9zm102 0v2.354h-6.438V7.88H283v2.356h-6.438v4.41H283V17h-9V1h9zM45.305 3.241c-.875 0-1.657.172-2.351.516-.693.342-1.287.803-1.779 1.378-.49.579-.864 1.237-1.12 1.978-.259.74-.387 1.507-.387 2.303s.128 1.564.387 2.305c.256.741.63 1.4 1.12 1.976.492.577 1.086 1.038 1.779 1.38.694.341 1.476.514 2.35.514.873 0 1.658-.173 2.351-.514.694-.342 1.287-.803 1.777-1.38.491-.577.866-1.235 1.124-1.976.257-.741.385-1.509.385-2.305 0-.796-.129-1.563-.385-2.303-.258-.741-.633-1.4-1.124-1.978-.49-.575-1.083-1.036-1.777-1.378-.693-.344-1.478-.516-2.35-.516zm163.585.398h-3.18v6.644h3.18c.468 0 .893-.09 1.276-.269.382-.182.706-.423.971-.726.264-.305.471-.654.62-1.052.147-.399.22-.823.22-1.276 0-.453-.073-.878-.22-1.275-.149-.397-.356-.748-.62-1.053-.265-.302-.589-.543-.971-.724-.383-.179-.808-.269-1.276-.269z" opacity=".5"/>
</svg>
