<svg xmlns="http://www.w3.org/2000/svg" width="30" height="30" viewBox="0 0 30 30">
    <path fill="#919191" fill-opacity=".5" fill-rule="evenodd" d="M17.033 0c2.267.007 2.934.033 4.134.167 1.666 0 2.666.333 3.666.666 1 .334 1.834.834 2.667 1.667.833.833 1.333 1.667 1.667 2.667.333 1 .666 2 .666 3.666.134 1.2.16 1.867.165 4.134v2.496c-.011 3.579-.166 4.104-.166 5.704 0 1.666-.334 2.666-.667 3.666s-.833 1.834-1.667 2.667c-.833.833-1.666 1.333-2.666 1.667-1 .333-2 .666-3.667.666-1.138.127-1.797.157-3.803.164l-.329.003h-2.496c-3.579-.012-4.104-.167-5.704-.167-1.666 0-2.666-.333-3.666-.666-1-.33-1.834-.834-2.667-1.667-.833-.833-1.333-1.667-1.667-2.667-.333-.996-.666-2-.666-3.666C.033 19.97.007 19.302 0 17.033v-4.066c.008-2.267.033-2.934.167-4.134 0-1.666.166-2.666.666-3.666.334-1 .834-1.834 1.667-2.667.833-.833 1.667-1.333 2.667-1.667 1-.333 2-.666 3.666-.666C10.033.033 10.7.008 12.967 0h4.066zm-.736 2.668h-3.314l-.321.002c-1.96.008-2.522.038-3.662.163-1.5 0-2.333.334-2.833.5C5.5 3.5 5 3.833 4.5 4.5c-.5.5-.833 1-1.167 1.667-.166.5-.5 1.333-.5 2.833-.153 1.382-.166 1.915-.166 5.105V15c0 4 .166 4.5.166 6s.334 2.333.5 2.833C3.667 24.5 4 25 4.5 25.5s1 .833 1.667 1.167c.5.166 1.333.5 2.833.5 1.2.133 1.76.16 3.983.165h2.48c3.579-.012 4.097-.164 5.537-.164 1.5 0 2.333-.333 2.833-.501C24.5 26.333 25 26 25.5 25.5s.833-1 1.167-1.667c.166-.5.5-1.333.5-2.833.133-1.2.16-1.76.165-3.983v-2.482c-.012-3.577-.167-4.095-.167-5.537 0-1.5-.333-2.333-.5-2.833-.333-.667-.667-1.167-1.167-1.667s-1-.833-1.666-1.166c-.5-.167-1.334-.5-2.834-.5-1.078-.119-1.64-.152-3.363-.162h-.298l-.322-.002h-.345l-.373-.001v.001zM15 7.333l.358.009c4.159.186 7.309 3.606 7.309 7.658 0 4.167-3.5 7.667-7.667 7.667S7.333 19.167 7.333 15 10.667 7.333 15 7.333zM15 10l-.3.008C12.013 10.155 10 12.27 10 15c0 2.833 2.167 5 5 5l.3-.008c2.685-.149 4.7-2.26 4.7-4.992 0-2.833-2.167-5-5-5zm8-4.833c1.012 0 1.833.82 1.833 1.833 0 1.012-.821 1.833-1.833 1.833S21.167 8.012 21.167 7c0-1.013.821-1.833 1.833-1.833z"/>
</svg>
