<svg xmlns="http://www.w3.org/2000/svg" width="201" height="21" viewBox="0 0 201 21">
    <path fill="#E5AC39" d="M7.33 20.728c5.407 0 7.12-3.095 7.12-5.678 0-7.48-12.017-4.656-12.017-9.793 0-2.163 2.013-3.695 4.686-3.695 2.253 0 4.296.781 5.738 2.523L14 2.824C12.467 1.05 10.184 0 7.209 0 3.576 0 .632 2.073.632 5.347c0 7 12.016 3.935 12.016 9.823 0 1.712-1.172 3.996-5.257 3.996-2.884 0-4.987-1.442-6.279-2.914L0 17.543c1.532 1.833 4.025 3.185 7.33 3.185zm30.58-.36v-8.322h5.798c3.815 0 6.038-2.704 6.038-5.858 0-3.154-2.193-5.858-6.038-5.858h-7.51v20.037h1.712zm5.618-9.884H37.91V1.893h5.618c2.674 0 4.416 1.772 4.416 4.295 0 2.494-1.742 4.296-4.416 4.296zm29.169 9.883v-9.523h12.707v9.523h1.712V.33h-1.712v8.952H72.697V.33h-1.712v20.037h1.712zm44.7 0v-8.561L125.356.33h-2.073l-6.759 9.854L109.766.33h-2.073l7.961 11.476v8.561h1.742zm30.25 0V3.154l12.616 17.213h1.683V.33h-1.713v16.973L147.677.33h-1.743v20.037h1.713zm37.129 0l6.97-9.042 6.999 9.042h2.132l-8.05-10.304 7.6-9.733h-2.163l-6.519 8.502L185.257.33h-2.163l7.6 9.763-8.05 10.274h2.132z"/>
</svg>
