<svg xmlns="http://www.w3.org/2000/svg" width="30" height="25" viewBox="0 0 30 25">
    <path fill="#E5AC39" fill-rule="evenodd" d="M26.929 6.138c.011.267.017.535.018.805.002 6.468-3.488 12.422-9.101 15.528C12.232 25.576 5.389 25.337 0 21.848c.487.058.978.087 1.468.087 2.772.004 5.464-.934 7.644-2.663-2.633-.05-4.943-1.786-5.75-4.32.923.178 1.874.142 2.78-.107-2.872-.588-4.937-3.139-4.937-6.1v-.078c.855.48 1.81.747 2.788.778C1.29 7.618.455 3.982 2.088 1.139c3.126 3.887 7.737 6.25 12.687 6.5-.633-2.743.635-5.573 3.091-6.902 2.457-1.33 5.49-.825 7.397 1.228 1.378-.274 2.7-.785 3.908-1.51-.459 1.441-1.42 2.665-2.706 3.442 1.22-.146 2.412-.477 3.535-.98-.826 1.25-1.866 2.34-3.071 3.22z"/>
</svg>
